<?xml version="1.0" encoding="UTF-8"?>
<svg id="Layer_1" data-name="Layer 1" xmlns="http://www.w3.org/2000/svg" viewBox="0 0 1354.19 331.82">
  <defs>
    <style>
      .cls-1 {
        fill: #fffffc;
      }
    </style>
  </defs>
  <path class="cls-1" d="M330.9,144.19c-1.08-48.38-12.99-92.83-30.36-115.33l-.47-.63C284.11,8.76,264.99.37,244.26.26c0,0,0,0-.01,0-.98,0-1.96.02-2.94.05C172.73.88,94.59,84.3,55.4,143.77,28.52,184.64,4.84,229.77.64,270.92c-1.25,10.26-.62,19.61,1.56,27.8,3.43,17.71,13.6,31.25,34.17,32.31,1.52.07,3.07.04,4.64-.05,9.88.48,21.29-1.73,34.04-7.25,37.61-14.84,64.32-41.29,93.38-16.74,16.85,13.04,36.01,23.65,57.65,22.16,9.31.46,19.47-1.73,30.8-8.05,52.4-31.82,72.96-100.11,74.05-164.3,0-.04,0-.09,0-.13.06-3.41.06-6.8,0-10.18-.01-.77-.02-1.53-.04-2.3ZM208.45,170.43c-2.22,4.17-4.69,8.21-7.64,11.89-2.79,3.48-6.03,6.65-9.83,8.97-2.33,1.43-5.21,2.54-7.75,1.53-1.64-.65-2.85-2.13-3.5-3.76-1.27-3.23-.7-6.86-.04-10.15.67-3.38,1.67-6.68,2.92-9.89,2.52-6.47,6.05-12.52,10.09-18.16.61-.85,1.22-1.68,1.85-2.51,2.85-3.76,5.98-7.42,9.97-9.93,2.05-1.29,4.48-2.27,6.85-1.76,2.52.54,4.44,2.74,5.24,5.19.8,2.45.63,5.11.18,7.64-.98,5.47-3.23,10.63-5.64,15.63-.86,1.78-1.75,3.56-2.68,5.31Z"/>
  <path class="cls-1" d="M598.89,155.75c-11.58-13.13-27.18-20.52-1.81-29.11,26.5-9.74,66.44-18.52,86.84-43.87,19.9-30.67-4.77-55.53-36.9-69.83C624.46,3.53,598.14-.19,571.24,0h-1.11c-61.12-.71-161.69,34.12-169.05,107.61-4.43,39.88,59.91,75.31,75.34,92.38.41,1.86-1.23,2.1-3.74,2.5-22.08.72-49.19-1.53-73.48,2.63-73.25,12.92-74.17,84.4-26.71,108.58,53.94,29.91,152.57,22.49,219.11-28.47,61.83-50.3,45.56-95.01,7.3-129.5Z"/>
  <path class="cls-1" d="M982.3,144.96c-1.08-48.38-12.99-92.83-30.36-115.33l-.47-.63c-15.96-19.47-35.08-27.86-55.81-27.97,0,0,0,0-.01,0-.98,0-1.96.02-2.94.05-68.57.58-146.72,83.99-185.91,143.46-26.88,40.87-50.56,86-54.76,127.15-1.25,10.26-.62,19.61,1.56,27.8,3.43,17.71,13.6,31.25,34.17,32.31,1.52.07,3.07.04,4.64-.05,9.88.48,21.29-1.73,34.04-7.25,37.61-14.84,64.32-41.29,93.38-16.74,16.85,13.04,36.01,23.65,57.65,22.16,9.31.46,19.47-1.73,30.8-8.05,52.4-31.82,72.96-100.11,74.05-164.3,0-.04,0-.09,0-.13.06-3.41.06-6.8,0-10.18-.01-.77-.02-1.53-.04-2.3ZM859.68,171.1c-1.5,2.61-3.12,5.16-4.82,7.64-3.25,4.73-6.85,9.33-11.52,12.68-1.38.99-2.88,1.88-4.53,2.3-1.65.42-3.48.35-4.96-.51-6.01-3.46-2.98-13.95-1.43-18.99,2.29-7.44,6.1-14.32,10.38-20.78,3.53-5.31,7.51-10.5,12.82-14.03,2.57-1.71,5.97-2.98,8.66-1.46,2.03,1.15,2.98,3.58,3.33,5.89.58,3.85-.09,7.8-1.15,11.55-1.56,5.51-3.94,10.73-6.78,15.7Z"/>
  <path class="cls-1" d="M1343.67,40.03l-.39-.69c-21.87-41.59-86.13-45.79-140.94-32.71-123.49,25.72-213.64,176.29-196.62,269.17,4.61,33.91,38.97,73.16,85.33,46.88,20.85-11.43,32.49-32.01,49.72-45.58,15.71-12.67,35.72-13.31,54.44-15.5,14.48-1.53,29.66-5.31,43.91-11.75,83.22-37.47,139.43-147.37,104.55-209.82ZM1221.56,170.33c-1.52,2.65-3.17,5.23-4.89,7.74-3.24,4.7-6.83,9.26-11.47,12.59-1.36.97-2.82,1.85-4.44,2.28-1.62.43-3.41.38-4.88-.42-5.53-2.99-3.47-11.79-2.26-16.52,1.7-6.64,4.6-12.92,8.13-18.76,1.81-3,3.8-5.89,5.91-8.69,2.83-3.75,5.93-7.4,9.87-9.97,2.67-1.74,6.28-2.91,8.95-1.17,1.74,1.14,2.6,3.24,2.97,5.28.64,3.54.1,7.2-.79,10.69-1.52,5.96-4.03,11.6-7.09,16.96Z"/>
</svg>