<?xml version="1.0" encoding="UTF-8"?>
<svg id="Layer_1" data-name="Layer 1" xmlns="http://www.w3.org/2000/svg" viewBox="0 0 669.11 865.82">
  <defs>
    <style>
      .cls-1 {
        fill: #ee4623;
      }
    </style>
  </defs>
  <path class="cls-1" d="M653.71,110.63c-14.91-19.48-33.09-32.22-53.99-37.86-16.55-4.45-34.8-6.8-54.14-7.01l-1.99.03c-19.89.96-39.55,5.41-58.43,13.24-18.97,7.86-35.97,18.68-50.5,32.16-1.9,1.76-5.32,5.33-10.85,12.37-4.13,5.25-10.33,8.11-16.69,8.11-3,0-6.05-.64-8.91-1.97-8.93-4.14-13.84-13.87-11.86-23.51.5-2.43.93-4.85,1.28-6.95,1.54-10.67,1.36-21.25-.54-31.41-2.17-11.52-7.14-22.24-15.34-32.59-6.22-8.53-14.14-15.07-23.54-19.43-8.63-3.99-17.74-6.02-27.1-6.02l-1.99.03c-9.97.31-19.19,2.75-27.41,7.26-3.19,1.75-6.7,2.62-10.22,2.62-3.96,0-7.91-1.1-11.37-3.3-5.28-3.34-11.03-6.1-17.12-8.21-15.68-5.43-31.88-8.19-48.18-8.19-1.48,0-2.97.02-4.47.07-13.89.43-27.6,2.76-40.71,6.93-12.58,4-24.83,9.52-37.18,16.7C69.22,55.68,36.84,105.17,28.8,166.94c-4.55,33.59,4.1,66.03,24.93,93.72,9.74,12.77,21.93,22.67,36.21,29.42,5.9,2.79,11.91,4.98,17.91,6.54,9.23,2.39,15.74,10.65,15.91,20.19.15,9.54-6.06,18.01-15.21,20.71-1.86.54-3.69,1.15-5.5,1.82-17.03,6.3-32.45,15.43-45.84,27.14-10.47,9.14-19.58,19.65-27.07,31.19-7.18,11.11-13.15,23.14-18.13,36.51-20.85,58.5-14.46,117.3,18.54,170.14,17.8,28.83,45.07,48.41,78.72,56.59,7.63,1.8,15.36,2.71,22.97,2.71s15.92-.99,23.7-2.94c15.27-3.83,28.67-10.71,39.82-20.45,9.66-8.42,17.31-18.53,22.75-30.02,3.52-7.47,11.03-12.15,19.17-12.15.7,0,1.4.04,2.1.1,1.93.19,3.88.3,5.69.31,1.35,0,2.7-.04,4.03-.12.41-.03.84-.04,1.25-.04,6.99,0,13.58,3.46,17.54,9.28,4.21,6.18,4.85,14.1,1.71,20.88-1.34,2.89-2.8,6.06-4.39,9.64-2.79,6.23-7.27,15.68-12.36,26.42l-.49,1.04c-16.97,35.81-30.3,64.33-34.63,78.66-6.8,22.49-9.42,40.8-7.97,56.77,1.04,19.18,8.42,35.1,21.89,47.29,12.73,11.47,28.04,17.53,44.29,17.53l2.33-.04c17.4-.61,33.28-7.68,46.64-21.19,15.82-16.98,30.19-36.32,42.72-57.48,4.56-7.71,10.82-18.41,17.39-29.64,3.93-6.72,11.01-10.52,18.33-10.52,3.16,0,6.36.71,9.37,2.19,6.84,3.37,14,5.53,21.28,6.42,4.78.59,9.75.89,14.77.89,19.9,0,40.09-4.7,56.84-13.24,19.49-9.93,33.28-27.23,44.4-41.19l4-4.99c12.26-15.09,23.37-31.41,33.02-48.51,9.78-17.38,17.79-35.56,23.78-54.02,6.52-20.15,9.03-40.27,7.43-60.45-.64-12.68-3.97-24.48-9.9-35.04-5.79-10.3-13.41-19.04-22.59-25.94-4.43-3.33-9.22-6.2-14.22-8.54-6.75-3.17-11.35-9.66-12.09-17.09-.75-7.43,2.47-14.7,8.47-19.15,11.28-8.39,20.72-18.3,28.05-29.46,7.78-11.88,13.14-25.15,15.9-39.44,3.05-15.75,1.66-31.81-4.29-48.23-6-17.84-15.55-32.29-28.38-42.98-5.76-4.79-8.56-12.26-7.38-19.66,1.18-7.4,6.18-13.63,13.14-16.38,2.06-.81,4.13-1.65,6.22-2.52,2.6-1.09,5.38-1.64,8.19-1.64.25,0,.5,0,.75.02,1.82.06,3.65.12,5.45.12,14.06,0,25.44-3.65,34.97-11.28,16.47-12.93,25.83-30.18,27.82-51.25,1.83-19.72-3.17-38.46-15.04-54.96ZM146.19,540.94c-1.74,7.76-4.58,12.97-7.99,14.67l-5.39-.15c-1.94-1-3.87-2.98-5.76-5.88-4.01-6.17-7.54-15.51-10.22-27.01-1.67-7.18-2.97-15.12-3.81-23.09-.37-3.48-.64-6.98-.82-10.41-.61-11.75,0-23.61,1.67-32.54,2-10.61,5.36-16.68,9.74-17.57,8.25-1.52,16.18,16.74,20.38,35.5,2.45,10.96,3.99,22.88,4.45,34.48.48,12.23-.3,23.3-2.26,32ZM197.07,138.66c-5.06,10.03-11.44,20.22-18.45,29.47-7.39,9.76-15.01,17.81-22.05,23.3-6.28,4.89-11.77,7.12-15.48,6.27-1.87-.43-3.24-1.62-4.07-3.54-.86-2-1.1-4.76-.72-8.2.82-7.31,4.02-16.77,9.25-27.36,3.27-6.61,7.3-13.57,11.71-20.26,1.93-2.93,3.93-5.8,5.97-8.57,6.98-9.47,14.98-18.25,21.94-24.08,8.28-6.93,14.73-9.49,18.68-7.4,7.34,4.06,1.89,23.2-6.78,40.37ZM294.59,357.67c-8.46,0-16.16-5.05-19.51-12.9-2.42-5.69-4.96-10.96-7.75-16.1-5.21-9.61-2.28-21.6,6.78-27.71,3.7-2.5,7.36-5.35,10.83-8.45,5.35-4.8,10.12-9.88,14.24-15.17,2.97-3.79,5.65-7.16,8.1-10.2.37-.47.74-.95,1.18-1.59,4.71-6.69,9.79-14.39,15.52-23.52,3.95-6.29,10.81-9.94,17.98-9.94,1.89,0,3.79.25,5.68.77,9.05,2.51,15.37,10.67,15.54,20.06.11,6.17.68,12.55,1.7,18.98,1.66,9.01-2.71,18.24-11.01,22.61-4.62,2.42-9.05,5.32-13.13,8.58-12.38,9.89-21.05,23.11-25.76,39.29-2.5,8.62-10.15,14.72-19.11,15.26-.42.03-.85.04-1.27.04ZM364.81,473.95c-2.91,3.65-5.94,7.58-9.1,11.83-3.07,4.12-6.2,8.44-9.37,12.92-4.04,5.71-10.55,8.96-17.32,8.96-1.77,0-3.58-.22-5.35-.68-8.54-2.22-14.82-9.5-15.75-18.28-.86-7.99-1.97-16.75-3.33-26.2-.71-5.1-1.51-10.24-2.37-15.42-1.47-8.83,2.76-17.63,10.57-22,3.23-1.81,6.81-2.7,10.36-2.7,4.99,0,9.96,1.77,13.92,5.2,6.33,5.5,13.42,10.33,21.05,14.36,5.6,2.95,9.59,8.24,10.88,14.43,1.29,6.19-.25,12.64-4.2,17.58ZM494.17,591.4c-5.06,10.03-11.44,20.22-18.45,29.47-7.39,9.76-15.01,17.81-22.05,23.3-6.28,4.89-11.77,7.12-15.48,6.27-1.87-.43-3.24-1.62-4.07-3.54-.86-2-1.1-4.76-.72-8.2.82-7.31,4.02-16.77,9.25-27.36,3.27-6.61,7.3-13.57,11.71-20.26,1.93-2.93,3.93-5.8,5.97-8.57,6.98-9.47,14.98-18.25,21.94-24.08,8.28-6.93,14.73-9.49,18.68-7.4,7.34,4.06,1.89,23.2-6.78,40.37Z"/>
</svg>